<svg width="40" height="52" viewBox="0 0 40 52" fill="none" xmlns="http://www.w3.org/2000/svg">
<path fill-rule="evenodd" clip-rule="evenodd" d="M8.72266 22.5388C8.72266 19.4287 9.88499 16.4459 11.9539 14.2467C14.0229 12.0475 16.829 10.812 19.755 10.812C22.6809 10.812 25.487 12.0475 27.556 14.2467C29.625 16.4459 30.7873 19.4287 30.7873 22.5388C30.7873 25.649 29.625 28.6318 27.556 30.831C25.487 33.0302 22.6809 34.2657 19.755 34.2657C16.829 34.2657 14.0229 33.0302 11.9539 30.831C9.88499 28.6318 8.72266 25.649 8.72266 22.5388ZM19.755 14.5152C17.753 14.5152 15.833 15.3606 14.4174 16.8653C13.0018 18.37 12.2065 20.4109 12.2065 22.5388C12.2065 24.6668 13.0018 26.7077 14.4174 28.2124C15.833 29.7171 17.753 30.5625 19.755 30.5625C21.7569 30.5625 23.6769 29.7171 25.0925 28.2124C26.5081 26.7077 27.3034 24.6668 27.3034 22.5388C27.3034 20.4109 26.5081 18.37 25.0925 16.8653C23.6769 15.3606 21.7569 14.5152 19.755 14.5152Z" fill="#282826"/>
<path fill-rule="evenodd" clip-rule="evenodd" d="M0.0702254 19.7167C0.467218 14.5984 2.66044 9.82593 6.21445 6.34685C9.76845 2.86776 14.4233 0.936508 19.2549 0.936523H20.2582C25.0898 0.936508 29.7446 2.86776 33.2986 6.34685C36.8526 9.82593 39.0459 14.5984 39.4428 19.7167C39.8846 25.4179 38.2276 31.0788 34.8209 35.5072L23.6887 49.9769C23.2123 50.5962 22.6124 51.0952 21.9323 51.4378C21.2523 51.7805 20.5091 51.9582 19.7565 51.9582C19.004 51.9582 18.2608 51.7805 17.5807 51.4378C16.9007 51.0952 16.3008 50.5962 15.8244 49.9769L4.69219 35.5072C1.28521 31.079 -0.371798 25.4179 0.0702254 19.7167ZM19.2549 4.63973C15.2983 4.64037 11.4866 6.22231 8.57631 9.07154C5.66607 11.9208 3.87007 15.829 3.54483 20.0204C3.17693 24.7651 4.55582 29.4764 7.39104 33.1619L18.5232 47.634C18.6729 47.8287 18.8614 47.9856 19.0751 48.0933C19.2888 48.2011 19.5223 48.257 19.7589 48.257C19.9954 48.257 20.2289 48.2011 20.4426 48.0933C20.6563 47.9856 20.8448 47.8287 20.9945 47.634L32.1267 33.1619C34.9602 29.4757 36.3374 24.7644 35.9682 20.0204C35.643 15.8286 33.8466 11.92 30.9359 9.0707C28.0252 6.22141 24.2129 4.63975 20.2559 4.63973H19.2549Z" fill="#282826"/>
</svg>
